<svg xmlns="http://www.w3.org/2000/svg" xmlns:xlink="http://www.w3.org/1999/xlink" width="1800px" height="1800px" viewBox="0 0 1800 1800" zoomAndPan="disable">

    <style type="text/css"><![CDATA[
		line
		{
			stroke: rgba(255,255,255,0.125);
			stroke-width: 0.85px;
		}
		
		polygon
		{
			fill: rgba(255,255,255,0.075);
		}
    ]]></style>
    
	<!-- Middle line -->
		<line x1="900" y1="0" x2="900" y2="1800" />

	<!-- Lines -->
		<line x1="0" y1="0" x2="900" y2="1800" />
		<line x1="100" y1="0" x2="900" y2="1700" />
		<line x1="200" y1="0" x2="900" y2="1600" />
		<line x1="300" y1="0" x2="900" y2="1500" />
		<line x1="400" y1="0" x2="900" y2="1400" />
		<line x1="300" y1="900" x2="600" y2="600" />
		<line x1="400" y1="900" x2="700" y2="600" />
		<line x1="500" y1="900" x2="800" y2="600" />
		<line x1="600" y1="900" x2="900" y2="600" />
		<line x1="700" y1="900" x2="900" y2="700" />
		<line x1="800" y1="900" x2="900" y2="800" />

		<line x1="1800" y1="0" x2="900" y2="1800" />
		<line x1="1700" y1="0" x2="900" y2="1700" />
		<line x1="1600" y1="0" x2="900" y2="1600" />
		<line x1="1500" y1="0" x2="900" y2="1500" />
		<line x1="1400" y1="0" x2="900" y2="1400" />
		<line x1="1500" y1="900" x2="1200" y2="600" />
		<line x1="1400" y1="900" x2="1100" y2="600" />
		<line x1="1300" y1="900" x2="1000" y2="600" />
		<line x1="1200" y1="900" x2="900" y2="600" />
		<line x1="1100" y1="900" x2="900" y2="700" />
		<line x1="1000" y1="900" x2="900" y2="800" />

	<!-- Fills -->
		<polygon points="300,1800 600,1500 650,1550 700,1500 750,1550 800,1500 850,1550 900,1500 900,1800 900,1500 950,1550 1000,1500 1050,1550 1100,1500 1150,1550 1200,1500 1500,1800" />
		<polygon points="350,1850 650,1550 700,1600 750,1550 800,1600 850,1550 900,1600 900,1800 900,1600 950,1550 1000,1600 1050,1550 1100,1600 1150,1550 1450,1850" />
		
		<polygon points="400,1000 700,700 750,750 800,700 850,750 900,700 900,900 900,700 950,750 1000,700 1050,750 1100,700 1300,900" />
		
		<polygon points="450,1050 750,750 800,800 850,750 900,800 900,900 900,800 950,750 1000,800 1050,750 1350,1050" />
		<polygon points="500,1100 800,800 850,850 900,800 900,900 900,800 950,850 1000,800 1300,1100" />
		<polygon points="550,1150 850,850 900,900 950,850 1250,1150" />

</svg>